<svg width="199" height="74" viewBox="0 0 199 74" fill="none" xmlns="http://www.w3.org/2000/svg">
<path d="M119.966 33.2729V16.4826H121.933L129.464 29.1713H128.409L135.845 16.4826H137.811L137.835 33.2729H135.533L135.509 20.1046H136.06L129.44 31.2341H128.337L121.669 20.1046H122.268V33.2729H119.966ZM148.199 33.4169C146.84 33.4169 145.641 33.137 144.601 32.5774C143.578 32.0177 142.778 31.2501 142.203 30.2747C141.643 29.2992 141.363 28.1799 141.363 26.9166C141.363 25.6534 141.635 24.534 142.179 23.5586C142.738 22.5831 143.498 21.8236 144.457 21.2799C145.433 20.7202 146.528 20.4404 147.744 20.4404C148.975 20.4404 150.062 20.7122 151.006 21.2559C151.949 21.7996 152.685 22.5671 153.212 23.5586C153.756 24.534 154.028 25.6773 154.028 26.9886C154.028 27.0845 154.02 27.1965 154.004 27.3244C154.004 27.4523 153.996 27.5722 153.98 27.6842H143.162V26.0291H152.781L151.845 26.6048C151.861 25.7893 151.693 25.0617 151.341 24.4221C150.99 23.7824 150.502 23.2867 149.878 22.9349C149.271 22.5671 148.559 22.3832 147.744 22.3832C146.944 22.3832 146.232 22.5671 145.609 22.9349C144.985 23.2867 144.497 23.7904 144.146 24.446C143.794 25.0857 143.618 25.8213 143.618 26.6528V27.0366C143.618 27.8841 143.81 28.6436 144.194 29.3152C144.593 29.9709 145.145 30.4826 145.849 30.8503C146.552 31.2181 147.36 31.402 148.271 31.402C149.023 31.402 149.702 31.2741 150.31 31.0183C150.934 30.7624 151.477 30.3786 151.941 29.8669L153.212 31.3541C152.637 32.0257 151.917 32.5374 151.054 32.8892C150.206 33.241 149.255 33.4169 148.199 33.4169ZM162.478 33.4169C161.247 33.4169 160.144 33.145 159.168 32.6013C158.209 32.0577 157.449 31.2981 156.89 30.3227C156.33 29.3472 156.05 28.2119 156.05 26.9166C156.05 25.6214 156.33 24.494 156.89 23.5346C157.449 22.5591 158.209 21.7996 159.168 21.2559C160.144 20.7122 161.247 20.4404 162.478 20.4404C163.55 20.4404 164.517 20.6802 165.381 21.1599C166.244 21.6397 166.932 22.3593 167.443 23.3187C167.971 24.2781 168.235 25.4775 168.235 26.9166C168.235 28.3558 167.979 29.5551 167.467 30.5145C166.972 31.474 166.292 32.2016 165.429 32.6973C164.565 33.177 163.582 33.4169 162.478 33.4169ZM162.67 31.402C163.47 31.402 164.189 31.2181 164.829 30.8503C165.485 30.4826 165.996 29.9629 166.364 29.2912C166.748 28.6036 166.94 27.8121 166.94 26.9166C166.94 26.0051 166.748 25.2216 166.364 24.566C165.996 23.8944 165.485 23.3747 164.829 23.0069C164.189 22.6391 163.47 22.4552 162.67 22.4552C161.855 22.4552 161.127 22.6391 160.487 23.0069C159.848 23.3747 159.336 23.8944 158.952 24.566C158.569 25.2216 158.377 26.0051 158.377 26.9166C158.377 27.8121 158.569 28.6036 158.952 29.2912C159.336 29.9629 159.848 30.4826 160.487 30.8503C161.127 31.2181 161.855 31.402 162.67 31.402ZM167.012 33.2729V29.8429L167.156 26.8926L166.916 23.9423V15.4752H169.218V33.2729H167.012ZM173.575 33.2729V20.5603H175.878V33.2729H173.575ZM174.727 18.1137C174.279 18.1137 173.903 17.9698 173.599 17.682C173.311 17.3941 173.168 17.0423 173.168 16.6266C173.168 16.1948 173.311 15.835 173.599 15.5472C173.903 15.2594 174.279 15.1154 174.727 15.1154C175.174 15.1154 175.542 15.2594 175.83 15.5472C176.134 15.819 176.286 16.1628 176.286 16.5786C176.286 17.0103 176.142 17.3781 175.854 17.682C175.566 17.9698 175.19 18.1137 174.727 18.1137ZM188.166 33.2729V30.5865L188.046 30.0828V25.5014C188.046 24.526 187.758 23.7744 187.183 23.2467C186.623 22.7031 185.775 22.4312 184.64 22.4312C183.888 22.4312 183.153 22.5591 182.433 22.815C181.714 23.0549 181.106 23.3827 180.61 23.7984L179.651 22.0714C180.307 21.5437 181.09 21.144 182.002 20.8721C182.929 20.5843 183.896 20.4404 184.904 20.4404C186.647 20.4404 187.99 20.8641 188.934 21.7116C189.877 22.5591 190.349 23.8544 190.349 25.5974V33.2729H188.166ZM183.992 33.4169C183.049 33.4169 182.217 33.257 181.498 32.9371C180.794 32.6173 180.251 32.1776 179.867 31.6179C179.483 31.0422 179.291 30.3946 179.291 29.675C179.291 28.9874 179.451 28.3638 179.771 27.8041C180.107 27.2444 180.642 26.7967 181.378 26.4609C182.129 26.1251 183.137 25.9572 184.4 25.9572H188.43V27.6122H184.496C183.345 27.6122 182.569 27.8041 182.169 28.1879C181.77 28.5717 181.57 29.0354 181.57 29.5791C181.57 30.2027 181.818 30.7064 182.313 31.0902C182.809 31.458 183.497 31.6419 184.376 31.6419C185.24 31.6419 185.991 31.45 186.631 31.0662C187.286 30.6824 187.758 30.1228 188.046 29.3872L188.502 30.9703C188.198 31.7218 187.662 32.3215 186.895 32.7692C186.127 33.201 185.16 33.4169 183.992 33.4169ZM127.545 57.4648C126.25 57.4648 125.059 57.257 123.971 56.8412C122.884 56.4094 121.941 55.8098 121.141 55.0422C120.341 54.2587 119.718 53.3472 119.27 52.3078C118.822 51.2684 118.598 50.1251 118.598 48.8778C118.598 47.6305 118.822 46.4872 119.27 45.4478C119.718 44.4084 120.341 43.5049 121.141 42.7373C121.957 41.9538 122.908 41.3541 123.995 40.9384C125.083 40.5066 126.282 40.2908 127.593 40.2908C128.921 40.2908 130.136 40.5066 131.239 40.9384C132.343 41.3701 133.278 42.0178 134.046 42.8813L132.558 44.3684C131.871 43.6968 131.119 43.2091 130.304 42.9052C129.504 42.5854 128.633 42.4255 127.689 42.4255C126.73 42.4255 125.834 42.5854 125.003 42.9052C124.187 43.2251 123.476 43.6728 122.868 44.2485C122.276 44.8241 121.813 45.5117 121.477 46.3113C121.157 47.0948 120.997 47.9503 120.997 48.8778C120.997 49.7893 121.157 50.6448 121.477 51.4443C121.813 52.2279 122.276 52.9155 122.868 53.5071C123.476 54.0828 124.187 54.5305 125.003 54.8503C125.818 55.1702 126.706 55.3301 127.665 55.3301C128.561 55.3301 129.416 55.1941 130.232 54.9223C131.063 54.6345 131.831 54.1627 132.534 53.5071L133.902 55.3301C133.07 56.0337 132.095 56.5694 130.975 56.9371C129.872 57.2889 128.729 57.4648 127.545 57.4648ZM131.599 55.0183V48.7819H133.902V55.3301L131.599 55.0183ZM138.158 57.2729V44.5603H140.365V48.0143L140.149 47.1508C140.501 46.2713 141.093 45.5997 141.924 45.136C142.756 44.6722 143.779 44.4404 144.994 44.4404V46.6711C144.898 46.6551 144.802 46.6471 144.706 46.6471C144.627 46.6471 144.547 46.6471 144.467 46.6471C143.235 46.6471 142.26 47.0149 141.54 47.7504C140.821 48.486 140.461 49.5494 140.461 50.9406V57.2729H138.158ZM153.16 57.4169C151.881 57.4169 150.745 57.137 149.754 56.5774C148.763 56.0177 147.979 55.2501 147.403 54.2747C146.828 53.2833 146.54 52.1639 146.54 50.9166C146.54 49.6534 146.828 48.534 147.403 47.5586C147.979 46.5831 148.763 45.8236 149.754 45.2799C150.745 44.7202 151.881 44.4404 153.16 44.4404C154.423 44.4404 155.551 44.7202 156.542 45.2799C157.55 45.8236 158.333 46.5831 158.893 47.5586C159.468 48.518 159.756 49.6374 159.756 50.9166C159.756 52.1799 159.468 53.2992 158.893 54.2747C158.333 55.2501 157.55 56.0177 156.542 56.5774C155.551 57.137 154.423 57.4169 153.16 57.4169ZM153.16 55.402C153.976 55.402 154.703 55.2181 155.343 54.8503C155.998 54.4826 156.51 53.9629 156.878 53.2912C157.246 52.6036 157.43 51.8121 157.43 50.9166C157.43 50.0051 157.246 49.2216 156.878 48.566C156.51 47.8944 155.998 47.3747 155.343 47.0069C154.703 46.6391 153.976 46.4552 153.16 46.4552C152.345 46.4552 151.617 46.6391 150.977 47.0069C150.338 47.3747 149.826 47.8944 149.442 48.566C149.058 49.2216 148.867 50.0051 148.867 50.9166C148.867 51.8121 149.058 52.6036 149.442 53.2912C149.826 53.9629 150.338 54.4826 150.977 54.8503C151.617 55.2181 152.345 55.402 153.16 55.402ZM168.29 57.4169C167.202 57.4169 166.243 57.217 165.411 56.8172C164.596 56.4174 163.956 55.8098 163.492 54.9943C163.045 54.1627 162.821 53.1233 162.821 51.8761V44.5603H165.124V51.6122C165.124 52.8595 165.419 53.795 166.011 54.4186C166.619 55.0422 167.466 55.3541 168.554 55.3541C169.353 55.3541 170.049 55.1941 170.64 54.8743C171.232 54.5385 171.688 54.0588 172.008 53.4352C172.327 52.7955 172.487 52.028 172.487 51.1325V44.5603H174.79V57.2729H172.607V53.8429L172.967 54.7544C172.551 55.6019 171.928 56.2575 171.096 56.7213C170.265 57.185 169.329 57.4169 168.29 57.4169ZM185.914 57.4169C184.858 57.4169 183.891 57.177 183.011 56.6973C182.148 56.2016 181.452 55.474 180.925 54.5145C180.413 53.5551 180.157 52.3558 180.157 50.9166C180.157 49.4775 180.405 48.2781 180.901 47.3187C181.412 46.3593 182.1 45.6397 182.963 45.1599C183.843 44.6802 184.826 44.4404 185.914 44.4404C187.161 44.4404 188.264 44.7122 189.224 45.2559C190.183 45.7996 190.943 46.5591 191.502 47.5346C192.062 48.494 192.342 49.6214 192.342 50.9166C192.342 52.2119 192.062 53.3472 191.502 54.3227C190.943 55.2981 190.183 56.0577 189.224 56.6013C188.264 57.145 187.161 57.4169 185.914 57.4169ZM179.174 61.9263V44.5603H181.38V47.9903L181.236 50.9406L181.476 53.8909V61.9263H179.174ZM185.722 55.402C186.537 55.402 187.265 55.2181 187.905 54.8503C188.56 54.4826 189.072 53.9629 189.44 53.2912C189.823 52.6036 190.015 51.8121 190.015 50.9166C190.015 50.0051 189.823 49.2216 189.44 48.566C189.072 47.8944 188.56 47.3747 187.905 47.0069C187.265 46.6391 186.537 46.4552 185.722 46.4552C184.922 46.4552 184.195 46.6391 183.539 47.0069C182.899 47.3747 182.388 47.8944 182.004 48.566C181.636 49.2216 181.452 50.0051 181.452 50.9166C181.452 51.8121 181.636 52.6036 182.004 53.2912C182.388 53.9629 182.899 54.4826 183.539 54.8503C184.195 55.2181 184.922 55.402 185.722 55.402Z" fill="#1B1B1B"/>
<path d="M15.8733 59.196C12.9071 59.196 10.001 58.7751 7.15502 57.9333C4.34913 57.0515 1.98417 55.849 0.0601262 54.3258L3.4272 48.253C4.95039 49.4956 6.79426 50.4977 8.95881 51.2593C11.1234 52.0209 13.3881 52.4017 15.7531 52.4017C18.559 52.4017 20.7435 51.8405 22.3068 50.7182C23.8701 49.5557 24.6518 47.9925 24.6518 46.0283C24.6518 44.1043 23.9302 42.5811 22.4872 41.4587C21.0442 40.3364 18.7193 39.7752 15.5126 39.7752H11.6645V34.424L23.6897 20.1139L24.7119 23.0601H2.10442V16.5064H30.7846V21.7373L18.7594 36.0474L14.6708 33.6423H17.0157C22.1866 33.6423 26.0547 34.8048 28.6201 37.1297C31.2256 39.4145 32.5283 42.3606 32.5283 45.9682C32.5283 48.3332 31.927 50.5178 30.7245 52.522C29.522 54.5262 27.6781 56.1496 25.1929 57.3922C22.7478 58.5947 19.6412 59.196 15.8733 59.196ZM55.8591 59.196C52.0511 59.196 48.7843 58.3943 46.0586 56.7909C43.3328 55.1475 41.2485 52.7825 39.8054 49.696C38.3624 46.6096 37.6409 42.8016 37.6409 38.2721C37.6409 33.462 38.5027 29.3934 40.2263 26.0664C41.99 22.7395 44.4151 20.2141 47.5016 18.4905C50.6282 16.7669 54.2157 15.9051 58.2642 15.9051C60.3887 15.9051 62.4129 16.1256 64.3369 16.5665C66.3011 17.0074 67.9646 17.6888 69.3274 18.6108L66.4414 24.5032C65.2789 23.7416 64.0163 23.2205 62.6534 22.9399C61.3306 22.6192 59.9277 22.4589 58.4446 22.4589C54.4762 22.4589 51.3296 23.6814 49.0048 26.1266C46.6799 28.5717 45.5174 32.1793 45.5174 36.9493C45.5174 37.7109 45.5375 38.6128 45.5776 39.655C45.6176 40.6571 45.7579 41.6792 45.9984 42.7214L43.5934 40.0758C44.3149 38.4324 45.297 37.0695 46.5396 35.9873C47.8223 34.8649 49.3254 34.0231 51.049 33.462C52.8127 32.9008 54.7167 32.6202 56.761 32.6202C59.5268 32.6202 61.992 33.1613 64.1566 34.2436C66.3211 35.2858 68.0447 36.7889 69.3274 38.7531C70.6101 40.6771 71.2515 42.9419 71.2515 45.5473C71.2515 48.3131 70.57 50.7182 69.2072 52.7625C67.8443 54.8068 66.0004 56.3901 63.6756 57.5125C61.3507 58.6348 58.7452 59.196 55.8591 59.196ZM55.4383 53.0631C57.0416 53.0631 58.4646 52.7825 59.7072 52.2213C60.9498 51.6201 61.9119 50.7783 62.5933 49.696C63.3148 48.6138 63.6756 47.3511 63.6756 45.9081C63.6756 43.7035 62.914 41.9598 61.3908 40.6771C59.8676 39.3944 57.8233 38.7531 55.2579 38.7531C53.5743 38.7531 52.0912 39.0737 50.8085 39.7151C49.5659 40.3164 48.5638 41.1581 47.8022 42.2404C47.0807 43.3227 46.72 44.5653 46.72 45.9682C46.72 47.2509 47.0607 48.4334 47.7421 49.5157C48.4235 50.5979 49.4056 51.4597 50.6883 52.1011C52.0111 52.7424 53.5944 53.0631 55.4383 53.0631ZM89.2865 59.196C86.3203 59.196 83.4142 58.7751 80.5682 57.9333C77.7623 57.0515 75.3973 55.849 73.4733 54.3258L76.7802 48.253C78.3034 49.4956 80.1473 50.4977 82.3119 51.2593C84.5165 52.0209 86.8013 52.4017 89.1663 52.4017C91.9321 52.4017 94.0966 51.8205 95.6599 50.6581C97.2633 49.4956 98.0649 47.9323 98.0649 45.9682C98.0649 44.6454 97.7242 43.483 97.0428 42.4809C96.4014 41.4788 95.239 40.7172 93.5555 40.1961C91.912 39.675 89.6473 39.4145 86.7612 39.4145H76.5999L78.7644 16.5064H103.476V23.0601H81.6505L85.7391 19.3323L84.1156 36.4683L80.0271 32.8006H88.5049C92.6736 32.8006 96.0206 33.3618 98.5459 34.4841C101.111 35.5664 102.975 37.0896 104.138 39.0537C105.34 40.9777 105.941 43.1824 105.941 45.6676C105.941 48.1127 105.34 50.3574 104.138 52.4017C102.935 54.446 101.091 56.0895 98.6061 57.3321C96.1609 58.5747 93.0544 59.196 89.2865 59.196Z" fill="#1B1B1B"/>
</svg>
