<svg width="117" height="117" viewBox="0 0 117 117" fill="none" xmlns="http://www.w3.org/2000/svg">
<path d="M105.299 23.3984C96.5522 11.7372 83.7672 3.76163 69.4479 1.03369C55.1286 -1.69425 40.3067 1.02204 27.8853 8.65051C15.464 16.279 6.33807 28.27 2.29514 42.275C-1.7478 56.2799 -0.416495 71.2897 6.02828 84.3645C12.4731 97.4392 23.567 107.637 37.1371 112.96C50.7072 118.283 65.7758 118.348 79.3914 113.143C93.0071 107.937 104.189 97.8356 110.746 84.8171C117.304 71.7986 118.765 56.8008 114.843 42.7615L97.0007 47.7455C99.6805 57.339 98.6822 67.5873 94.2012 76.4832C89.7203 85.3791 82.0796 92.2816 72.7757 95.8388C63.4718 99.3959 53.175 99.3514 43.9022 95.7139C34.6294 92.0765 27.0487 85.1082 22.6448 76.1739C18.2409 67.2396 17.3312 56.983 20.0938 47.4131C22.8565 37.8432 29.0924 29.6494 37.5802 24.4366C46.0681 19.2239 56.1962 17.3678 65.981 19.2319C75.7657 21.0959 84.502 26.5459 90.4788 34.5142L105.299 23.3984Z" fill="url(#paint0_linear_6593_54930)"/>
<path d="M105.299 23.3984C96.5522 11.7372 83.7672 3.76163 69.4479 1.03369C55.1286 -1.69425 40.3067 1.02204 27.8853 8.65051C15.464 16.279 6.33807 28.27 2.29514 42.275C-1.7478 56.2799 -0.416495 71.2897 6.02828 84.3645C12.4731 97.4392 23.567 107.637 37.1371 112.96C50.7072 118.283 65.7758 118.348 79.3914 113.143C93.0071 107.937 104.189 97.8356 110.746 84.8171C117.304 71.7986 118.765 56.8008 114.843 42.7615L97.0007 47.7455C99.6805 57.339 98.6822 67.5873 94.2012 76.4832C89.7203 85.3791 82.0796 92.2816 72.7757 95.8388C63.4718 99.3959 53.175 99.3514 43.9022 95.7139C34.6294 92.0765 27.0487 85.1082 22.6448 76.1739C18.2409 67.2396 17.3312 56.983 20.0938 47.4131C22.8565 37.8432 29.0924 29.6494 37.5802 24.4366C46.0681 19.2239 56.1962 17.3678 65.981 19.2319C75.7657 21.0959 84.502 26.5459 90.4788 34.5142L105.299 23.3984Z" fill="url(#paint1_linear_6593_54930)"/>
<path d="M105.299 23.3984C96.5522 11.7372 83.7672 3.76163 69.4479 1.03369C55.1286 -1.69425 40.3067 1.02204 27.8853 8.65051C15.464 16.279 6.33807 28.27 2.29514 42.275C-1.7478 56.2799 -0.416495 71.2897 6.02828 84.3645C12.4731 97.4392 23.567 107.637 37.1371 112.96C50.7072 118.283 65.7758 118.348 79.3914 113.143C93.0071 107.937 104.189 97.8356 110.746 84.8171C117.304 71.7986 118.765 56.8008 114.843 42.7615L97.0007 47.7455C99.6805 57.339 98.6822 67.5873 94.2012 76.4832C89.7203 85.3791 82.0796 92.2816 72.7757 95.8388C63.4718 99.3959 53.175 99.3514 43.9022 95.7139C34.6294 92.0765 27.0487 85.1082 22.6448 76.1739C18.2409 67.2396 17.3312 56.983 20.0938 47.4131C22.8565 37.8432 29.0924 29.6494 37.5802 24.4366C46.0681 19.2239 56.1962 17.3678 65.981 19.2319C75.7657 21.0959 84.502 26.5459 90.4788 34.5142L105.299 23.3984Z" fill="url(#paint2_linear_6593_54930)"/>
<defs>
<linearGradient id="paint0_linear_6593_54930" x1="57" y1="39" x2="59" y2="51" gradientUnits="userSpaceOnUse">
<stop stop-color="#0F1A34"/>
<stop offset="1" stop-color="#0F1A34" stop-opacity="0"/>
</linearGradient>
<linearGradient id="paint1_linear_6593_54930" x1="-2.5" y1="46.5" x2="98" y2="46.5" gradientUnits="userSpaceOnUse">
<stop stop-color="#0F1A34"/>
<stop offset="1" stop-color="#0F1A34" stop-opacity="0"/>
</linearGradient>
<linearGradient id="paint2_linear_6593_54930" x1="22.5" y1="168" x2="46" y2="42.5" gradientUnits="userSpaceOnUse">
<stop stop-color="#0F1A34"/>
<stop offset="1" stop-color="#0F1A34" stop-opacity="0"/>
</linearGradient>
</defs>
</svg>
